<svg width="16" height="16" viewBox="0 0 16 16" fill="none" xmlns="http://www.w3.org/2000/svg">
<path d="M12.48 9.83999C12.7134 9.27332 12.84 8.66665 12.84 7.99999C12.84 7.51999 12.7667 7.05999 12.64 6.63332C12.2067 6.73332 11.7534 6.78665 11.28 6.78665C9.24004 6.78665 7.43337 5.77999 6.33337 4.22666C5.74004 5.66666 4.60671 6.83999 3.18004 7.47999C3.15337 7.64666 3.15337 7.82665 3.15337 7.99999C3.15337 9.2854 3.664 10.5182 4.57293 11.4271C5.48186 12.336 6.71463 12.8467 8.00004 12.8467C8.70004 12.8467 9.37337 12.6933 9.98004 12.42C10.36 13.1467 10.5334 13.5067 10.52 13.5067C9.42671 13.8733 8.58004 14.0533 8.00004 14.0533C6.38671 14.0533 4.84671 13.42 3.71337 12.28C3.02004 11.5867 2.50671 10.74 2.22004 9.81999H1.33337V6.78665H2.06004C2.62004 4.02666 5.06671 1.94666 8.00004 1.94666C9.60004 1.94666 11.14 2.57999 12.28 3.71999C13.1267 4.55999 13.6934 5.63332 13.9267 6.78665H14.6667V9.77999V9.79332V9.81999H14.6267L12.2534 12L8.72004 11.6V10.4867H11.94L12.48 9.83999ZM6.18004 7.84666C6.38004 7.84666 6.57337 7.92665 6.71337 8.07332C6.85337 8.21332 6.93337 8.40665 6.93337 8.60665C6.93337 8.80665 6.85337 8.99999 6.71337 9.13999C6.57337 9.27999 6.38004 9.35999 6.18004 9.35999C5.76004 9.35999 5.42004 9.02665 5.42004 8.60665C5.42004 8.18665 5.76004 7.84666 6.18004 7.84666ZM9.81338 7.84666C10.2334 7.84666 10.5667 8.18665 10.5667 8.60665C10.5667 9.02665 10.2334 9.35999 9.81338 9.35999C9.39338 9.35999 9.05337 9.02665 9.05337 8.60665C9.05337 8.40509 9.13345 8.21178 9.27597 8.06925C9.4185 7.92673 9.61181 7.84666 9.81338 7.84666Z" fill="#F4F4F4"/>
</svg>
