<svg width="16" height="16" viewBox="0 0 16 16" fill="none" xmlns="http://www.w3.org/2000/svg">
<path d="M5.20004 1.33331H10.8C12.9334 1.33331 14.6667 3.06665 14.6667 5.19998V10.8C14.6667 11.8255 14.2593 12.809 13.5342 13.5341C12.809 14.2593 11.8255 14.6666 10.8 14.6666H5.20004C3.06671 14.6666 1.33337 12.9333 1.33337 10.8V5.19998C1.33337 4.17448 1.74075 3.19097 2.46589 2.46583C3.19104 1.74069 4.17454 1.33331 5.20004 1.33331ZM5.06671 2.66665C4.43019 2.66665 3.81974 2.9195 3.36965 3.36959C2.91956 3.81968 2.66671 4.43013 2.66671 5.06665V10.9333C2.66671 12.26 3.74004 13.3333 5.06671 13.3333H10.9334C11.5699 13.3333 12.1803 13.0805 12.6304 12.6304C13.0805 12.1803 13.3334 11.5698 13.3334 10.9333V5.06665C13.3334 3.73998 12.26 2.66665 10.9334 2.66665H5.06671ZM11.5 3.66665C11.7211 3.66665 11.933 3.75444 12.0893 3.91072C12.2456 4.067 12.3334 4.27897 12.3334 4.49998C12.3334 4.72099 12.2456 4.93296 12.0893 5.08924C11.933 5.24552 11.7211 5.33331 11.5 5.33331C11.279 5.33331 11.0671 5.24552 10.9108 5.08924C10.7545 4.93296 10.6667 4.72099 10.6667 4.49998C10.6667 4.27897 10.7545 4.067 10.9108 3.91072C11.0671 3.75444 11.279 3.66665 11.5 3.66665ZM8.00004 4.66665C8.8841 4.66665 9.73194 5.01784 10.3571 5.64296C10.9822 6.26808 11.3334 7.11592 11.3334 7.99998C11.3334 8.88403 10.9822 9.73188 10.3571 10.357C9.73194 10.9821 8.8841 11.3333 8.00004 11.3333C7.11599 11.3333 6.26814 10.9821 5.64302 10.357C5.0179 9.73188 4.66671 8.88403 4.66671 7.99998C4.66671 7.11592 5.0179 6.26808 5.64302 5.64296C6.26814 5.01784 7.11599 4.66665 8.00004 4.66665ZM8.00004 5.99998C7.46961 5.99998 6.9609 6.21069 6.58583 6.58577C6.21075 6.96084 6.00004 7.46955 6.00004 7.99998C6.00004 8.53041 6.21075 9.03912 6.58583 9.41419C6.9609 9.78927 7.46961 9.99998 8.00004 9.99998C8.53047 9.99998 9.03918 9.78927 9.41426 9.41419C9.78933 9.03912 10 8.53041 10 7.99998C10 7.46955 9.78933 6.96084 9.41426 6.58577C9.03918 6.21069 8.53047 5.99998 8.00004 5.99998Z" fill="#F4F4F4"/>
</svg>
