<svg width="16" height="16" viewBox="0 0 16 16" fill="none" xmlns="http://www.w3.org/2000/svg">
<path d="M14 7.33335C14 11.0334 11.44 14.4934 8 15.3334C4.56 14.4934 2 11.0334 2 7.33335V3.33335L8 0.666687L14 3.33335V7.33335ZM8 14C10.5 13.3334 12.6667 10.36 12.6667 7.48002V4.20002L8 2.12002L3.33333 4.20002V7.48002C3.33333 10.36 5.5 13.3334 8 14ZM8 5.92669C9.06667 5.92669 9.92667 6.78669 9.92667 7.85335C9.92667 8.92002 9.06667 9.78002 8 9.78002C6.93333 9.78002 6.07333 8.91335 6.07333 7.85335C6.07333 6.79335 6.94 5.92669 8 5.92669ZM8 4.00002L8.92 5.33335C8.64 5.21335 8.33333 5.15335 8 5.15335C7.66667 5.15335 7.36667 5.21335 7.08 5.33335L8 4.00002ZM4.66667 5.92669L6.26667 5.79335C6.04 6.00002 5.82667 6.22669 5.66667 6.50669C5.5 6.78669 5.4 7.08002 5.33333 7.38669L4.66667 5.92669ZM4.66667 9.78002L5.35333 8.33335C5.40667 8.62002 5.51333 8.92002 5.66667 9.20002C5.83333 9.48669 6.04 9.72669 6.26667 9.92002L4.66667 9.78002ZM11.3333 5.92669L10.6667 7.38669C10.6 7.08002 10.4933 6.78669 10.3333 6.50669C10.1733 6.22669 9.96667 6.00002 9.73333 5.78669L11.3333 5.92669ZM11.3333 9.78002L9.73333 9.91335C9.96 9.72002 10.1667 9.48002 10.3333 9.20002C10.4933 8.92002 10.5933 8.62002 10.6467 8.33335L11.3333 9.78002ZM8 11.7L7.07333 10.38C7.36 10.48 7.66667 10.5467 8 10.5467C8.33333 10.5467 8.63333 10.48 8.91333 10.38L8 11.7Z" fill="#F4F4F4"/>
</svg>
