<svg width="16" height="16" viewBox="0 0 16 16" fill="none" xmlns="http://www.w3.org/2000/svg">
<path d="M14.9733 4.00002C14.4599 4.23335 13.9066 4.38669 13.3333 4.46002C13.9199 4.10669 14.3733 3.54669 14.5866 2.87335C14.0333 3.20669 13.4199 3.44002 12.7733 3.57335C12.2466 3.00002 11.5066 2.66669 10.6666 2.66669C9.09994 2.66669 7.81994 3.94669 7.81994 5.52669C7.81994 5.75335 7.84661 5.97335 7.89328 6.18002C5.51994 6.06002 3.40661 4.92002 1.99994 3.19335C1.75328 3.61335 1.61328 4.10669 1.61328 4.62669C1.61328 5.62002 2.11328 6.50002 2.88661 7.00002C2.41328 7.00002 1.97328 6.86669 1.58661 6.66669C1.58661 6.66669 1.58661 6.66669 1.58661 6.68669C1.58661 8.07335 2.57328 9.23335 3.87994 9.49335C3.63994 9.56002 3.38661 9.59335 3.12661 9.59335C2.94661 9.59335 2.76661 9.57335 2.59328 9.54002C2.95328 10.6667 3.99994 11.5067 5.25994 11.5267C4.28661 12.3 3.05328 12.7534 1.70661 12.7534C1.47994 12.7534 1.25328 12.74 1.02661 12.7134C2.29328 13.5267 3.79994 14 5.41328 14C10.6666 14 13.5533 9.64002 13.5533 5.86002C13.5533 5.73335 13.5533 5.61335 13.5466 5.48669C14.1066 5.08669 14.5866 4.58002 14.9733 4.00002Z" fill="#F4F4F4"/>
</svg>
